<svg width="444" height="202" viewBox="0 0 444 202" fill="none" xmlns="http://www.w3.org/2000/svg">
<path d="M124.98 160.879H14.5861C7.03502 160.879 0.859985 154.736 0.859985 147.223C0.859985 139.711 7.03502 133.567 14.5861 133.567C14.5861 133.567 35.7945 133.567 60.9247 133.567C83.2167 133.567 110.256 124.549 128.128 102.063C173.228 122.17 138.706 139.711 138.706 147.223C138.706 154.736 132.531 160.879 124.98 160.879Z" fill="white"/>
<path d="M52.9898 147.523C54.2536 147.794 57.5287 139.588 59.4025 134.142C54.6729 133.882 49.8593 133.788 45.1325 134.099C47.7233 139.425 51.7261 147.252 52.9898 147.523Z" fill="#3AC882"/>
<path d="M83.2351 143.13C84.4143 143.084 85.4535 135.085 85.8779 129.843C81.6357 130.684 77.3566 131.691 73.246 133.035C76.7434 137.16 82.0559 143.177 83.2351 143.13Z" fill="#3AC882"/>
<path d="M108.509 134.386C109.65 134.083 108.913 126.05 108.181 120.842C104.225 122.591 100.27 124.51 96.5533 126.721C100.868 129.98 107.369 134.689 108.509 134.386Z" fill="#3AC882"/>
<path d="M124.98 161.735H14.5862C6.53625 161.735 0 155.232 0 147.223C0 139.215 6.53625 132.712 14.5862 132.712H60.9247C87.0697 132.712 111.942 121.058 127.457 101.55L127.87 101.036L128.472 101.31C142.542 107.591 150.179 114.128 151.847 121.298C153.636 128.998 147.943 135.758 143.797 140.686C141.613 143.287 139.549 145.735 139.549 147.24C139.566 155.232 133.03 161.735 124.98 161.735ZM14.5862 134.423C7.49948 134.423 1.72007 140.173 1.72007 147.223C1.72007 154.274 7.49948 160.024 14.5862 160.024H124.98C132.067 160.024 137.846 154.274 137.846 147.223C137.846 145.101 139.893 142.654 142.49 139.574C146.618 134.663 151.761 128.536 150.179 121.657C148.682 115.24 141.355 108.994 128.386 103.124C112.509 122.735 87.3449 134.423 60.9247 134.423H14.5862Z" fill="black"/>
<path d="M278.565 83.2052C278.565 83.2052 237.954 68.4028 227.083 64.4327C216.212 60.4455 204.774 57.8957 191.34 57.6048C177.906 57.3138 157.025 59.8807 139.583 80.9292C122.142 101.978 116.878 123.146 92.66 135.279C74.1693 144.554 61.0624 147.805 62.3524 160.794C63.3157 170.531 74.9433 173.354 88.377 173.354C101.811 173.354 354.076 173.354 354.076 173.354L278.565 83.2052Z" fill="white"/>
<path d="M355.899 174.21H88.3769C71.4171 174.21 62.3696 169.726 61.4923 160.879C60.3743 149.551 69.4218 145.324 83.1308 138.907C86.0377 137.538 89.0478 136.134 92.2643 134.526C108.244 126.517 115.709 114.761 124.361 101.139C128.644 94.3968 133.081 87.4149 138.895 80.3987C152.277 64.2616 169.942 56.3213 191.34 56.7491C203.828 57.0058 215.283 59.1962 227.375 63.6284C238.246 67.6156 278.857 82.4009 278.857 82.4009L279.081 82.4864L279.235 82.6576L355.899 174.21ZM189.534 58.4433C169.203 58.4433 153.069 65.9899 140.237 81.4768C134.475 88.4245 130.089 95.3551 125.823 102.046C117.412 115.308 109.448 127.818 93.0555 136.032C89.8046 137.657 86.7945 139.078 83.8704 140.43C70.3507 146.761 62.1976 150.577 63.2124 160.691C63.9864 168.511 72.4491 172.481 88.3769 172.481H352.235L278.048 83.941C274.849 82.7774 237.197 69.0531 226.791 65.237C214.888 60.8733 203.621 58.7171 191.323 58.4604C190.721 58.4433 190.119 58.4433 189.534 58.4433Z" fill="black"/>
<path d="M248.721 124.566L187.005 147.121C180.091 150.269 177.614 156.361 177.614 161.872C177.614 167.861 182.224 172.772 188.089 173.32V173.371H304.039L248.721 124.566Z" fill="white"/>
<path d="M306.309 174.21H187.28V174.073C181.226 173.166 176.754 168.032 176.754 161.872C176.754 154.873 180.366 149.225 186.644 146.351L248.91 123.591L306.309 174.21ZM188.708 172.499H301.768L248.532 125.542L187.298 147.925C179.334 151.553 178.474 158.877 178.474 161.872C178.474 167.399 182.636 171.951 188.175 172.464L188.708 172.499Z" fill="black"/>
<path d="M171.301 71.7398C188.691 81.9902 195.675 77.4383 217.399 80.2789C239.141 83.1196 254.002 94.4995 273.439 97.3573C278.926 98.1616 283.776 97.152 287.905 95.2867L278.582 84.1635C278.582 84.1635 237.971 69.3611 227.1 65.391C216.229 61.4038 204.791 58.854 191.357 58.5631C184.03 58.4091 174.483 59.1107 164.507 63.1835C165.384 66.452 167.414 69.4467 171.301 71.7398Z" fill="#50BC81"/>
<path d="M211 139.163L187.109 147.891C180.607 150.851 178.268 156.584 178.268 161.769C178.268 167.399 182.602 172.019 188.124 172.533V172.584H224.761C224.348 157.012 218.018 146.299 211 139.163Z" fill="#50BC81"/>
<path d="M87.6029 138.479C72.3115 145.786 61.8879 149.328 63.0232 160.657C63.9348 169.898 74.9604 172.567 87.7233 172.567C90.355 172.567 102.705 172.567 120.594 172.567C106.85 152.922 95.2056 143.219 87.6029 138.479Z" fill="#50BC81"/>
<path d="M28.3123 147.155C28.3123 140.447 32.2512 136.477 35.3646 134.355C23.0489 134.355 14.6722 134.355 14.6722 134.355C7.55111 134.372 1.72009 140.173 1.72009 147.258C1.72009 154.342 7.55111 160.143 14.6722 160.143H44.3089C35.8118 156.55 28.3123 151.981 28.3123 147.155Z" fill="#50BC81"/>
<path d="M441.575 83.4961C434.007 80.1762 412.884 87.3806 403.923 90.7347C390.455 76.6168 370.485 64.0904 343.48 59.6069C334.226 58.0668 325.058 58.101 316.251 59.3331C311.555 51.4442 296.952 27.9315 290.295 28.8727C284.086 29.7626 276.862 63.9022 273.852 78.3794C253.486 93.3872 242.288 124.755 250.992 143.373C265.01 173.354 272.424 173.115 335.86 173.115C399.691 173.115 432.579 178.813 421.708 133.567C430.429 118.782 448.645 86.5935 441.575 83.4961Z" fill="white"/>
<path d="M290.853 47.1952C289.572 48.9029 287.117 65.3401 286.05 73.3452C291.6 69.5028 301.527 65.6959 305.796 64.2728C301.349 57.8687 292.134 45.4874 290.853 47.1952Z" fill="#BFBFBF"/>
<path d="M430.912 96.7106C430.739 98.8383 421.684 112.774 417.178 119.476C415.568 112.92 410.658 103.49 408.404 99.5952C415.979 97.7471 431.085 94.5829 430.912 96.7106Z" fill="#BFBFBF"/>
<path d="M370.536 174.21C365.703 174.21 360.56 174.159 355.107 174.107C349.053 174.039 342.62 173.987 335.843 173.987H334.415C272.286 174.004 264.34 173.987 250.201 143.749C241.48 125.097 252.592 93.1989 273.06 77.9003C280.199 43.6409 285.324 28.7187 290.158 28.0342C290.313 28.0171 290.485 28 290.639 28C297.434 28 309.68 46.704 316.681 58.409C325.763 57.1941 334.828 57.3138 343.6 58.7684C373.667 63.7482 393.069 78.2768 404.129 89.7422C415.258 85.618 434.42 79.4404 441.902 82.726C442.779 83.1025 443.381 83.8212 443.725 84.8309C445.531 90.4096 438.427 106.855 422.603 133.721C425.905 147.685 425.114 157.097 420.143 163.309C412.523 172.824 395.649 174.21 370.536 174.21ZM335.86 172.259C342.637 172.259 349.07 172.327 355.142 172.379C388.322 172.704 410.236 172.926 418.819 162.231C423.48 156.396 424.134 147.36 420.883 133.773L420.797 133.431L420.969 133.14C441.541 98.2642 443.054 88.2363 442.108 85.3442C441.936 84.7966 441.644 84.4544 441.231 84.2662C436.157 82.0415 422.328 84.7624 404.232 91.5219L403.699 91.7272L403.304 91.3165C392.484 79.9709 373.306 65.4081 343.342 60.4454C334.535 58.9909 325.471 58.8882 316.372 60.1716L315.804 60.2572L315.511 59.7609C304.125 40.6462 294.561 29.0952 290.416 29.7113C286.614 30.2589 281.317 46.6869 274.694 78.5505L274.626 78.8757L274.368 79.0639C254.312 93.8492 243.32 124.943 251.783 143.014C265.458 172.276 271.959 172.225 334.449 172.259H335.86Z" fill="black"/>
<path d="M290.45 147.72C297.375 147.72 302.989 142.134 302.989 135.245C302.989 128.355 297.375 122.769 290.45 122.769C283.525 122.769 277.911 128.355 277.911 135.245C277.911 142.134 283.525 147.72 290.45 147.72Z" fill="#F1C21B"/>
<path d="M263.29 117.396C263.273 117.328 263.273 117.259 263.308 117.208C263.376 117.105 263.514 117.071 263.617 117.122L291.396 133.379C291.499 133.448 291.534 133.585 291.482 133.687C291.413 133.79 291.276 133.824 291.173 133.773L263.394 117.516C263.342 117.482 263.308 117.43 263.29 117.396Z" fill="#10113B"/>
<path d="M260.469 124.737C260.452 124.686 260.452 124.635 260.469 124.583C260.521 124.464 260.641 124.412 260.762 124.464L290.828 136.032C290.949 136.083 291 136.203 290.949 136.323C290.897 136.442 290.777 136.494 290.656 136.442L260.59 124.874C260.538 124.84 260.487 124.789 260.469 124.737Z" fill="#10113B"/>
<path d="M257.993 135.689C257.975 135.655 257.975 135.621 257.975 135.587C257.993 135.467 258.096 135.381 258.216 135.381L290.278 138.633C290.399 138.65 290.485 138.753 290.485 138.872C290.467 138.992 290.364 139.078 290.244 139.078L258.182 135.826C258.079 135.826 258.01 135.775 257.993 135.689Z" fill="#10113B"/>
<path d="M302.714 122.855C305.08 122.855 306.997 120.947 306.997 118.594C306.997 116.241 305.08 114.333 302.714 114.333C300.349 114.333 298.431 116.241 298.431 118.594C298.431 120.947 300.349 122.855 302.714 122.855Z" fill="black"/>
<path d="M298.414 117.892C296.986 117.892 295.834 116.746 295.834 115.325C295.834 113.905 296.986 112.759 298.414 112.759L318.332 112.707C319.76 112.707 320.912 113.854 320.912 115.274C320.912 116.694 319.76 117.841 318.332 117.841L298.414 117.892C298.431 117.892 298.431 117.892 298.414 117.892Z" fill="black"/>
<path d="M367.028 142.038C369.393 142.038 371.311 140.13 371.311 137.777C371.311 135.424 369.393 133.516 367.028 133.516C364.662 133.516 362.745 135.424 362.745 137.777C362.745 140.13 364.662 142.038 367.028 142.038Z" fill="black"/>
<path d="M382.353 147.394C381.786 147.394 381.218 147.206 380.753 146.83L365.084 134.389C363.966 133.499 363.794 131.89 364.671 130.778C365.565 129.666 367.182 129.495 368.3 130.367L383.97 142.808C385.088 143.698 385.26 145.307 384.383 146.419C383.85 147.052 383.11 147.394 382.353 147.394Z" fill="black"/>
<path d="M324.06 106.359C323.991 106.359 323.94 106.359 323.871 106.341L300.943 103.894C299.996 103.792 299.308 102.953 299.412 102.012C299.515 101.071 300.34 100.386 301.304 100.489L324.232 102.936C325.178 103.039 325.866 103.877 325.763 104.818C325.677 105.708 324.937 106.359 324.06 106.359Z" fill="black"/>
<path d="M384.882 131.976C384.538 131.976 384.194 131.873 383.884 131.651L368.799 120.973C368.025 120.425 367.853 119.364 368.404 118.594C368.954 117.824 370.02 117.653 370.794 118.2L385.879 128.879C386.653 129.426 386.825 130.487 386.275 131.257C385.948 131.719 385.432 131.976 384.882 131.976Z" fill="black"/>
<path d="M325.058 139.968C324.593 139.968 324.198 139.591 324.198 139.129C324.198 138.65 324.559 138.273 325.041 138.256C328.704 138.188 333.108 137.794 333.865 137.264C334.742 136.648 335.946 134.081 336.496 132.609C336.668 132.164 337.15 131.942 337.597 132.113C338.044 132.284 338.268 132.763 338.096 133.208C337.924 133.653 336.445 137.555 334.845 138.667C333.314 139.745 326.967 139.933 325.058 139.968Z" fill="black"/>
<path d="M338.887 147.822C338.612 147.822 338.337 147.685 338.165 147.446C336.754 145.341 333.521 140.259 333.951 138.393C334.26 137.041 336.29 132.986 336.514 132.524C336.72 132.096 337.236 131.925 337.666 132.147C338.096 132.352 338.268 132.866 338.044 133.294C337.184 135.022 335.826 137.914 335.619 138.77C335.482 139.523 337.288 143.065 339.592 146.487C339.85 146.881 339.747 147.412 339.352 147.668C339.214 147.771 339.059 147.822 338.887 147.822Z" fill="black"/>
<path d="M344.598 126.021C341.381 125.062 337.803 124.857 335.051 122.941C334.501 122.564 333.916 122.102 333.262 122.17C332.351 122.273 331.886 123.368 331.938 124.275C332.007 125.559 332.695 126.705 333.383 127.801C333.864 128.571 334.346 129.358 334.828 130.128C335.481 131.189 336.187 132.318 337.305 132.917C339.3 133.995 341.777 133.02 343.669 131.771C344.546 131.189 347.47 129.58 347.659 128.468C347.866 127.133 345.561 126.312 344.598 126.021Z" fill="#50BC81"/>
<path d="M361.816 156.464C357.756 162.043 359.476 168.939 366.253 170.411C373.495 171.968 379.412 171.882 383.695 167.998C388.803 163.36 383.746 158.141 377.365 155.472C370.932 152.785 365.875 150.885 361.816 156.464Z" fill="#F1C21B"/>
<path d="M406.073 161.495C406.124 161.461 406.159 161.393 406.159 161.324C406.159 161.204 406.056 161.102 405.935 161.102L373.701 160.52C373.581 160.52 373.478 160.622 373.478 160.742C373.478 160.862 373.581 160.965 373.701 160.965L405.935 161.547C405.987 161.529 406.021 161.512 406.073 161.495Z" fill="#10113B"/>
<path d="M404.611 169.213C404.645 169.179 404.68 169.127 404.697 169.076C404.714 168.956 404.645 168.836 404.525 168.819L372.824 163.052C372.704 163.035 372.583 163.104 372.566 163.224C372.549 163.343 372.618 163.463 372.738 163.48L404.439 169.247C404.508 169.264 404.559 169.247 404.611 169.213Z" fill="#10113B"/>
<path d="M387.479 172.892C387.513 172.875 387.531 172.841 387.548 172.807C387.599 172.704 387.548 172.567 387.445 172.516L371.895 165.585C371.792 165.534 371.654 165.585 371.603 165.688C371.551 165.79 371.603 165.927 371.706 165.979L387.255 172.909C387.324 172.961 387.427 172.943 387.479 172.892Z" fill="#10113B"/>
<path d="M342.998 60.3428C342.998 60.3428 336.066 76.6168 341.416 79.6115C346.129 82.2469 353.938 62.653 353.938 62.653C353.938 62.653 349.792 61.6433 348.313 61.3695C346.834 61.0786 342.998 60.3428 342.998 60.3428Z" fill="#50BC81"/>
<path d="M357.928 63.8508C357.928 63.8508 348.399 86.0459 355.279 89.9817C362.005 93.8321 369.504 67.9921 369.504 67.9921C369.504 67.9921 362.4 65.1343 363.69 65.5963C364.98 66.0584 357.928 63.8508 357.928 63.8508Z" fill="#50BC81"/>
<path d="M373.512 69.7718C372.755 71.7226 364.929 90.8545 370.278 93.8492C374.991 96.4845 383.54 75.2992 383.54 75.2992C383.54 75.2992 378.276 71.4488 373.512 69.7718Z" fill="#50BC81"/>
</svg>
